<mxfile host="app.diagrams.net" modified="2022-11-22T06:26:45.907Z" agent="5.0 (Windows NT 10.0; Win64; x64) AppleWebKit/537.36 (KHTML, like Gecko) Chrome/107.0.0.0 Safari/537.36" etag="nc52IthysqmsA93fjZ6o" version="20.5.3" type="github">
  <diagram id="prtHgNgQTEPvFCAcTncT" name="Page-1">
    <mxGraphModel dx="670" dy="433" grid="1" gridSize="10" guides="1" tooltips="1" connect="1" arrows="1" fold="1" page="1" pageScale="1" pageWidth="827" pageHeight="1169" math="0" shadow="0">
      <root>
        <mxCell id="0" />
        <mxCell id="1" parent="0" />
        <mxCell id="SNiGRXwPcBf7Ug7YYd5D-6" style="edgeStyle=orthogonalEdgeStyle;rounded=0;orthogonalLoop=1;jettySize=auto;html=1;entryX=0;entryY=0.5;entryDx=0;entryDy=0;fontFamily=Helvetica;fontSize=18;exitX=0.5;exitY=1;exitDx=0;exitDy=0;" edge="1" parent="1" source="SNiGRXwPcBf7Ug7YYd5D-1" target="SNiGRXwPcBf7Ug7YYd5D-5">
          <mxGeometry relative="1" as="geometry" />
        </mxCell>
        <mxCell id="SNiGRXwPcBf7Ug7YYd5D-12" style="edgeStyle=orthogonalEdgeStyle;rounded=0;orthogonalLoop=1;jettySize=auto;html=1;entryX=0.5;entryY=0;entryDx=0;entryDy=0;fontFamily=Helvetica;fontSize=18;" edge="1" parent="1" source="SNiGRXwPcBf7Ug7YYd5D-1" target="SNiGRXwPcBf7Ug7YYd5D-3">
          <mxGeometry relative="1" as="geometry" />
        </mxCell>
        <mxCell id="SNiGRXwPcBf7Ug7YYd5D-1" value="&lt;font style=&quot;font-size: 18px;&quot;&gt;training set&lt;/font&gt;" style="rounded=1;whiteSpace=wrap;html=1;arcSize=5;align=center;fontFamily=Helvetica;fillColor=#dae8fc;strokeColor=#6c8ebf;" vertex="1" parent="1">
          <mxGeometry x="304" y="80" width="110" height="40" as="geometry" />
        </mxCell>
        <mxCell id="SNiGRXwPcBf7Ug7YYd5D-8" style="edgeStyle=orthogonalEdgeStyle;rounded=0;orthogonalLoop=1;jettySize=auto;html=1;entryX=0.5;entryY=0;entryDx=0;entryDy=0;fontFamily=Helvetica;fontSize=18;" edge="1" parent="1" source="SNiGRXwPcBf7Ug7YYd5D-2" target="SNiGRXwPcBf7Ug7YYd5D-5">
          <mxGeometry relative="1" as="geometry" />
        </mxCell>
        <mxCell id="SNiGRXwPcBf7Ug7YYd5D-2" value="&lt;font style=&quot;font-size: 18px;&quot;&gt;test set&lt;/font&gt;" style="rounded=1;whiteSpace=wrap;html=1;arcSize=5;fillColor=#dae8fc;strokeColor=#6c8ebf;" vertex="1" parent="1">
          <mxGeometry x="445" y="80" width="110" height="40" as="geometry" />
        </mxCell>
        <mxCell id="SNiGRXwPcBf7Ug7YYd5D-9" style="edgeStyle=orthogonalEdgeStyle;rounded=0;orthogonalLoop=1;jettySize=auto;html=1;entryX=0.5;entryY=0;entryDx=0;entryDy=0;fontFamily=Helvetica;fontSize=18;" edge="1" parent="1" source="SNiGRXwPcBf7Ug7YYd5D-3" target="SNiGRXwPcBf7Ug7YYd5D-4">
          <mxGeometry relative="1" as="geometry" />
        </mxCell>
        <mxCell id="SNiGRXwPcBf7Ug7YYd5D-3" value="Generating Model" style="rounded=0;whiteSpace=wrap;html=1;fontFamily=Helvetica;fontSize=18;fillColor=#d5e8d4;strokeColor=#82b366;" vertex="1" parent="1">
          <mxGeometry x="160" y="170" width="120" height="60" as="geometry" />
        </mxCell>
        <mxCell id="SNiGRXwPcBf7Ug7YYd5D-7" style="edgeStyle=orthogonalEdgeStyle;rounded=0;orthogonalLoop=1;jettySize=auto;html=1;entryX=0;entryY=0.5;entryDx=0;entryDy=0;fontFamily=Helvetica;fontSize=18;" edge="1" parent="1" source="SNiGRXwPcBf7Ug7YYd5D-4" target="SNiGRXwPcBf7Ug7YYd5D-5">
          <mxGeometry relative="1" as="geometry">
            <Array as="points">
              <mxPoint x="360" y="300" />
              <mxPoint x="360" y="230" />
            </Array>
          </mxGeometry>
        </mxCell>
        <mxCell id="SNiGRXwPcBf7Ug7YYd5D-4" value="&lt;font style=&quot;font-size: 18px;&quot;&gt;Augment set&lt;/font&gt;" style="rounded=1;whiteSpace=wrap;html=1;arcSize=5;align=center;fontFamily=Helvetica;fillColor=#dae8fc;strokeColor=#6c8ebf;" vertex="1" parent="1">
          <mxGeometry x="165" y="280" width="110" height="40" as="geometry" />
        </mxCell>
        <mxCell id="SNiGRXwPcBf7Ug7YYd5D-5" value="Classification&lt;br&gt;Model" style="rounded=0;whiteSpace=wrap;html=1;fontFamily=Helvetica;fontSize=18;fillColor=#d5e8d4;strokeColor=#82b366;" vertex="1" parent="1">
          <mxGeometry x="440" y="200" width="120" height="60" as="geometry" />
        </mxCell>
        <mxCell id="SNiGRXwPcBf7Ug7YYd5D-14" style="edgeStyle=orthogonalEdgeStyle;rounded=0;orthogonalLoop=1;jettySize=auto;html=1;entryX=0.5;entryY=0;entryDx=0;entryDy=0;fontFamily=Helvetica;fontSize=18;" edge="1" parent="1" source="SNiGRXwPcBf7Ug7YYd5D-13" target="SNiGRXwPcBf7Ug7YYd5D-1">
          <mxGeometry relative="1" as="geometry" />
        </mxCell>
        <mxCell id="SNiGRXwPcBf7Ug7YYd5D-15" style="edgeStyle=orthogonalEdgeStyle;rounded=0;orthogonalLoop=1;jettySize=auto;html=1;fontFamily=Helvetica;fontSize=18;" edge="1" parent="1" source="SNiGRXwPcBf7Ug7YYd5D-13" target="SNiGRXwPcBf7Ug7YYd5D-2">
          <mxGeometry relative="1" as="geometry" />
        </mxCell>
        <mxCell id="SNiGRXwPcBf7Ug7YYd5D-13" value="real dataset" style="rounded=0;whiteSpace=wrap;html=1;fontFamily=Helvetica;fontSize=18;fillColor=#dae8fc;strokeColor=#6c8ebf;" vertex="1" parent="1">
          <mxGeometry x="370" y="20" width="116" height="30" as="geometry" />
        </mxCell>
      </root>
    </mxGraphModel>
  </diagram>
</mxfile>
